<svg xmlns="http://www.w3.org/2000/svg">
    <defs>
        <symbol id='html'>
            <path d="M80.5867 4.27656C80.253 3.89562 79.7732 3.67999 79.2726 3.67999H9.72743C9.2268 3.67999 8.74704 3.89562 8.41329 4.27656C8.07258 4.65749 7.90571 5.16781 7.95438 5.68531L14.2191 78.2288C14.2817 78.9906 14.7963 79.6231 15.5055 79.8388L44.0063 88.2481C44.1593 88.2984 44.3262 88.32 44.493 88.32C44.6599 88.32 44.8199 88.2984 44.9798 88.2481L73.5015 79.8388C74.2107 79.6231 74.7183 78.9906 74.7878 78.2288L81.0456 5.68531C81.0943 5.16781 80.9274 4.65749 80.5867 4.27656ZM65.5888 29.2891H32.1026L32.9022 38.6544H64.7823L62.3904 66.3334L44.4861 71.9253L44.3123 71.8678L26.6166 66.3262L25.6501 55.0491H34.3206L34.6961 59.4262L44.5904 61.5681L54.3039 59.4262L55.3399 47.5812H25.0034L22.6463 20.3406H66.3606L65.5888 29.2891Z" fill="black"/>
        </symbol>
        <symbol id='css'>
            <path fill-rule="evenodd" clip-rule="evenodd" d="M90.72 13.44L84.24 89.6L54 98.56L23.76 89.6L17.28 13.44H90.72ZM36.2897 62.72H44.9297L45.1406 68.32L54 71.4525L62.8594 68.32L63.5006 58.24H44.4994L44.0606 49.28H63.9394L64.5806 40.32H34.7794L34.1297 31.36H73.6594L72.5794 49.28L71.0606 75.04L54 80.8675L36.9394 75.04L36.2897 62.72Z" fill="black"/>
        </symbol>
        <symbol id='js'>
            <path d="M11.375 83.125V11.875H79.625V83.125H11.375Z" fill="#FFD600"/>
            <path d="M55.9991 65.2076C57.311 67.4322 58.7367 69.5638 61.7568 69.5638C64.2934 69.5638 65.6243 68.2476 65.6243 66.4268C65.6243 64.2477 64.2479 63.4739 61.4572 62.2052L59.9273 61.5244C55.5119 59.569 52.5753 57.1188 52.5753 51.9433C52.5753 47.1735 56.0731 43.5437 61.5387 43.5437C65.4309 43.5437 68.2272 44.9509 70.2444 48.6361L65.4783 51.8166C64.4299 49.8612 63.2962 49.0913 61.5387 49.0913C59.7453 49.0913 58.6097 50.2728 58.6097 51.8166C58.6097 53.7245 59.7472 54.4964 62.3729 55.6779L63.9029 56.3588C69.1069 58.6724 72.0417 61.0355 72.0417 66.3476C72.0417 72.0714 67.7116 75.2084 61.899 75.2084C56.2134 75.2084 52.9848 72.2297 51.1875 68.5425L55.9991 65.2076ZM34.034 65.3699C34.9933 67.163 36.4512 68.5425 38.548 68.5425C40.5538 68.5425 41.7083 67.7152 41.7083 64.4991V43.5417H48.0271V65.5124C48.0271 72.1763 44.3246 75.2084 38.9177 75.2084C34.0321 75.2084 30.5059 71.7527 29.0688 68.5425L34.034 65.3699Z" fill="#000001"/>
        </symbol>
        <symbol id='git'>
            <path d="M78.2458 42.8188L48.0229 11.2375C47.0958 10.2688 45.7979 9.6875 44.5 9.6875C43.2021 9.6875 41.9042 10.2688 40.9771 11.2375L34.4875 18.0188L42.0896 25.9625C42.8312 25.575 43.5729 25.3813 44.5 25.3813C47.6521 25.3813 50.0625 27.9 50.0625 31.1938C50.0625 32.1625 49.8771 32.9375 49.5062 33.7125L56.9229 41.4625C57.6646 41.075 58.4062 40.8813 59.3333 40.8813C62.4854 40.8813 64.8958 43.4 64.8958 46.6938C64.8958 49.9875 62.4854 52.5063 59.3333 52.5063C56.1812 52.5063 53.7708 49.9875 53.7708 46.6938C53.7708 45.725 53.9562 44.95 54.3271 44.175L46.9104 36.425C46.725 36.425 46.5396 36.6187 46.3542 36.6187V56.7687C48.5792 57.5437 50.0625 59.675 50.0625 62.1937C50.0625 65.4875 47.6521 68.0062 44.5 68.0062C41.3479 68.0062 38.9375 65.4875 38.9375 62.1937C38.9375 59.675 40.4208 57.5437 42.6458 56.7687V36.425C40.4208 35.65 38.9375 33.5187 38.9375 31C38.9375 30.0312 39.1229 29.2563 39.4937 28.4812L31.8917 20.5375L10.7542 42.8188C9.82708 43.7875 9.27083 45.1437 9.27083 46.5C9.27083 47.8563 9.82708 49.2125 10.7542 50.1812L40.9771 81.7625C41.9042 82.7313 43.2021 83.3125 44.5 83.3125C45.7979 83.3125 47.0958 82.7313 48.0229 81.7625L78.2458 50.1812C79.1729 49.2125 79.7292 47.8563 79.7292 46.5C79.7292 45.1437 79.1729 43.7875 78.2458 42.8188Z" fill="#F4511E"/>
        </symbol>
        <symbol id='scss'>
            <path fill-rule="evenodd" clip-rule="evenodd" d="M44.5779 7.72803C65.0164 7.72803 81.5833 24.8534 81.5833 45.9809C81.5833 67.1064 65.0164 84.2337 44.5779 84.2337C24.1413 84.2337 7.57242 67.1083 7.57242 45.9809C7.57427 24.8534 24.1413 7.72803 44.5779 7.72803Z" fill="#F06292"/>
            <path fill-rule="evenodd" clip-rule="evenodd" d="M67.7902 24.1001C66.114 17.3055 55.2171 15.0726 44.9042 18.8599C38.7669 21.1139 32.1216 24.6521 27.3434 29.2713C21.6622 34.7644 20.7574 39.5446 21.1301 41.5418C22.4465 48.5894 31.7897 53.197 35.6297 56.6164V56.6374C34.4968 57.2144 26.2086 61.5499 24.2692 65.9831C22.2222 70.6598 24.5955 74.0159 26.166 74.4682C31.0332 75.8674 36.0265 73.3508 38.7113 69.2127C41.3016 65.2184 41.0865 60.0625 39.961 57.4961C41.5129 57.0725 43.3245 56.8828 45.6236 57.1607C52.1151 57.9446 53.3889 62.1344 53.1441 63.8882C52.9012 65.6419 51.5384 66.606 51.0841 66.8974C50.628 67.1887 50.4908 67.2903 50.5279 67.5049C50.5835 67.8193 50.793 67.8078 51.1824 67.7407C51.7164 67.6468 54.5904 66.3147 54.7146 63.0774C54.8703 58.9681 51.0619 54.3719 44.3164 54.4908C41.5389 54.5406 39.7923 54.8128 38.5296 55.2996C38.4369 55.1904 38.3405 55.0811 38.244 54.9719C34.074 50.3719 26.3644 47.1193 26.6907 40.9361C26.8094 38.6879 27.5659 32.7692 41.5037 25.5894C52.9216 19.7071 62.0627 21.3267 63.6424 24.9128C65.8989 30.0379 58.7567 39.5619 46.8993 40.9361C42.3807 41.4594 40.0018 39.65 39.4103 38.9754C38.7873 38.2662 38.6946 38.2336 38.4628 38.3678C38.0846 38.5844 38.3238 39.2111 38.4628 39.5849C38.817 40.5374 40.2706 42.226 42.746 43.0674C44.9246 43.8073 50.2294 44.2117 56.6448 41.6472C63.8278 38.7722 69.4385 30.7797 67.7902 24.1001ZM37.2242 58.7228C37.762 60.7813 37.7026 62.7018 37.1482 64.4402C37.087 64.6338 37.0184 64.8235 36.9443 65.0133C36.8701 65.2011 36.7904 65.3889 36.7051 65.5729C36.2768 66.4929 35.7001 67.3535 34.9955 68.1489C32.8447 70.5735 29.841 71.4897 28.5542 70.7173C27.1635 69.8835 27.8607 66.4661 30.3527 63.7406C33.0338 60.81 36.8924 58.9259 36.8924 58.9259L36.8868 58.9144C36.998 58.8512 37.1111 58.7879 37.2242 58.7228Z" fill="white"/>
        </symbol>
        <symbol id='webpack'>
            <path d="M44.5 7.83337L12.9792 27.4167V66.5834L44.5 86.1667L76.0208 66.5834V27.4167L44.5 7.83337Z" fill="#ECEFF1"/>
            <path d="M43.5729 47.9792V65.6042L27.8125 56.7917V38.1875L43.5729 47.9792Z" fill="#0277BD"/>
            <path d="M45.4271 47.9792V65.6042L61.1875 56.7917V38.1875L45.4271 47.9792Z" fill="#0277BD"/>
            <path d="M44.5 46.0208L28.7396 36.2291L44.5 27.4166L60.2604 36.2291L44.5 46.0208Z" fill="#0277BD"/>
            <path d="M43.5729 13.7084V25.4584L26.8854 35.25L17.6146 29.375L43.5729 13.7084Z" fill="#81D4FA"/>
            <path d="M43.5729 80.2917V68.5417L26.8854 58.75L17.6146 64.625L43.5729 80.2917Z" fill="#81D4FA"/>
            <path d="M25.9583 37.2084L16.6875 31.3334V62.6667L25.9583 56.7917V37.2084Z" fill="#81D4FA"/>
            <path d="M45.4271 13.7084V25.4584L62.1146 35.25L71.3854 29.375L45.4271 13.7084Z" fill="#81D4FA"/>
            <path d="M45.4271 80.2917V68.5417L62.1146 58.75L71.3854 64.625L45.4271 80.2917Z" fill="#81D4FA"/>
            <path d="M63.0417 37.2084L72.3125 31.3334V62.6667L63.0417 56.7917V37.2084Z" fill="#81D4FA"/>
        </symbol>

       <symbol id='mail'>
            <path d="M13.2 0.0439453C6.03528 0.0439453 0.200012 5.70415 0.200012 12.6539V40.3959C0.200012 47.3457 6.03528 53.0059 13.2 53.0059H41.8C48.9647 53.0059 54.8 47.3457 54.8 40.3959V12.6539C54.8 5.70415 48.9647 0.0439453 41.8 0.0439453H13.2ZM11.9 15.1759H43.1C43.334 15.1759 43.5547 15.2016 43.7627 15.2646L30.9836 27.648C29.0596 29.5143 25.9277 29.5143 24.0037 27.648L11.2373 15.2646C11.4453 15.2016 11.666 15.1759 11.9 15.1759ZM9.39142 17.0551L19.1668 26.5249L9.39142 35.9948C9.32642 35.793 9.30001 35.5789 9.30001 35.3519V17.6979C9.30001 17.471 9.32642 17.2569 9.39142 17.0551ZM45.6086 17.0551C45.6736 17.2569 45.7 17.471 45.7 17.6979V35.3519C45.7 35.5789 45.6736 35.793 45.6086 35.9948L35.8205 26.5249L45.6086 17.0551ZM21 28.3032L22.1578 29.4385C23.6268 30.8635 25.5633 31.5689 27.4873 31.5689C29.4243 31.5689 31.3478 30.8635 32.8168 29.4385L33.9873 28.3032L43.7627 37.7853C43.5547 37.8483 43.334 37.8739 43.1 37.8739H11.9C11.666 37.8739 11.4453 37.8483 11.2373 37.7853L21 28.3032Z" fill="black"/>
        </symbol>
        <symbol id='vk'>
            <path d="M43.4583 0.125H5.54167C2.54896 0.125 0.125 2.54896 0.125 5.54167V43.4583C0.125 46.451 2.54896 48.875 5.54167 48.875H43.4583C46.451 48.875 48.875 46.451 48.875 43.4583V5.54167C48.875 2.54896 46.451 0.125 43.4583 0.125ZM40.4981 34.4775L35.7992 34.5425C35.7992 34.5425 34.7862 34.7402 33.4592 33.8248C31.7015 32.6169 30.044 29.4752 28.7521 29.8842C27.4412 30.3012 27.4819 33.1287 27.4819 33.1287C27.4819 33.1287 27.4927 33.6271 27.1921 33.9521C26.8671 34.3015 26.2306 34.2662 26.2306 34.2662H24.1263C24.1263 34.2662 19.4842 34.6508 15.3919 30.3852C10.934 25.735 6.99604 16.5565 6.99604 16.5565C6.99604 16.5565 6.76583 15.9769 7.01229 15.6817C7.29125 15.354 8.04417 15.3458 8.04417 15.3458L13.0735 15.3215C13.0735 15.3215 13.5475 15.4054 13.8887 15.6546C14.1677 15.8604 14.3275 16.2477 14.3275 16.2477C14.3275 16.2477 15.14 18.3087 16.2179 20.1748C18.3196 23.8121 19.2973 24.6083 20.0096 24.2183C21.0496 23.6496 20.7381 19.0779 20.7381 19.0779C20.7381 19.0779 20.7571 17.4177 20.2154 16.6783C19.7929 16.1015 18.9994 15.9308 18.65 15.8875C18.3656 15.8496 18.8287 15.1915 19.4327 14.8935C20.3373 14.4521 21.9379 14.425 23.8256 14.444C25.2963 14.4602 25.7215 14.5496 26.2956 14.6904C28.0317 15.1102 27.4413 16.7298 27.4413 20.6162C27.4413 21.8621 27.2165 23.6117 28.1129 24.1885C28.5002 24.4377 29.4427 24.2265 31.7962 20.2181C32.9148 18.3169 33.7517 16.0825 33.7517 16.0825C33.7517 16.0825 33.9358 15.6844 34.2202 15.5137C34.5127 15.3377 34.9054 15.3919 34.9054 15.3919L40.2002 15.3594C40.2002 15.3594 41.79 15.1671 42.05 15.8902C42.3208 16.6458 41.4569 18.409 39.2929 21.2933C35.7423 26.0329 35.3469 25.5915 38.2962 28.3323C41.1129 30.9512 41.6952 32.2242 41.7927 32.384C42.9573 34.3231 40.4981 34.4775 40.4981 34.4775Z" fill="black"/>
        </symbol>
        <symbol id='telegram'>
            <path d="M22.5 0.15625C34.8398 0.15625 44.8438 10.1602 44.8438 22.5C44.8438 34.8398 34.8398 44.8438 22.5 44.8438C10.1602 44.8438 0.15625 34.8398 0.15625 22.5C0.15625 10.1602 10.1602 0.15625 22.5 0.15625ZM30.2076 31.6081C30.6179 30.3477 32.5445 17.7804 32.7812 15.3033C32.8533 14.5537 32.6156 14.0551 32.1525 13.8316C31.5909 13.5625 30.7601 13.6966 29.7942 14.0449C28.4709 14.5223 11.5556 21.7037 10.5786 22.1202C9.65234 22.5142 8.77586 22.9428 8.77586 23.5654C8.77586 24.0031 9.03586 24.2489 9.75086 24.5038C10.4943 24.7689 12.3681 25.3366 13.4762 25.6423C14.5426 25.9369 15.7542 25.6809 16.4347 25.2584C17.1548 24.8105 25.4748 19.2449 26.0709 18.7564C26.6671 18.2689 27.1434 18.8935 26.6559 19.382C26.1684 19.8695 20.4586 25.4118 19.705 26.1796C18.7899 27.1109 19.4389 28.0768 20.0534 28.4638C20.7531 28.9055 25.7906 32.2835 26.5493 32.8259C27.308 33.3682 28.0768 33.614 28.7816 33.614C29.4865 33.613 29.8572 32.6847 30.2076 31.6081Z" fill="black"/>
        </symbol>
        <symbol id='github'>
            <path d="M24.5208 0.687458C12.0625 2.04162 2.04167 12.0625 0.687502 24.25C-0.666665 36.9791 6.64583 48.3541 17.75 52.6875C18.5625 52.9583 19.375 52.4166 19.375 51.3333V47C19.375 47 18.2917 47.2708 16.9375 47.2708C13.1458 47.2708 11.5208 44.0208 11.25 42.125C10.9792 41.0416 10.4375 40.2291 9.625 39.4166C8.8125 39.1458 8.54167 39.1458 8.54167 38.875C8.54167 38.3333 9.35417 38.3333 9.625 38.3333C11.25 38.3333 12.6042 40.2291 13.1458 41.0416C14.5 43.2083 16.125 43.75 16.9375 43.75C18.0208 43.75 18.8333 43.4791 19.375 43.2083C19.6458 41.3125 20.4583 39.4166 22.0833 38.3333C15.8542 36.9791 11.25 33.4583 11.25 27.5C11.25 24.5208 12.6042 21.5416 14.5 19.375C14.2292 18.8333 13.9583 17.4791 13.9583 15.5833C13.9583 14.5 13.9583 13.1458 14.5 12.0625C14.5 11.5208 15.0417 11.25 15.3125 11.25H15.5833C16.9375 11.5208 19.6458 12.3333 22.0833 14.7708C23.7083 14.2291 25.6042 13.9583 27.5 13.9583C29.3958 13.9583 31.2917 14.2291 32.9167 14.7708C35.3542 12.3333 38.3333 11.5208 39.6875 11.25H39.9583C40.5 11.25 40.7708 11.5208 41.0417 12.0625C41.0417 13.1458 41.0417 14.5 41.0417 15.5833C41.0417 17.75 40.7708 18.8333 40.5 19.375C42.3958 21.5416 43.75 24.25 43.75 27.5C43.75 33.4583 39.1458 36.9791 32.9167 38.3333C34.5417 39.6875 35.625 42.125 35.625 44.5625V51.6041C35.625 52.4166 36.4375 53.2291 37.5208 52.9583C47.5417 48.8958 54.5833 39.1458 54.5833 27.7708C54.5833 11.5208 40.7708 -1.20838 24.5208 0.687458Z" fill="black"/>
        </symbol>
        <symbol id='insta'>
            <path d="M13.6667 0.125C6.18896 0.125 0.125 6.18896 0.125 13.6667V35.3333C0.125 42.811 6.18896 48.875 13.6667 48.875H35.3333C42.811 48.875 48.875 42.811 48.875 35.3333V13.6667C48.875 6.18896 42.811 0.125 35.3333 0.125H13.6667ZM40.75 5.54167C42.245 5.54167 43.4583 6.755 43.4583 8.25C43.4583 9.745 42.245 10.9583 40.75 10.9583C39.255 10.9583 38.0417 9.745 38.0417 8.25C38.0417 6.755 39.255 5.54167 40.75 5.54167ZM24.5 10.9583C31.9777 10.9583 38.0417 17.0223 38.0417 24.5C38.0417 31.9777 31.9777 38.0417 24.5 38.0417C17.0223 38.0417 10.9583 31.9777 10.9583 24.5C10.9583 17.0223 17.0223 10.9583 24.5 10.9583ZM24.5 16.375C22.3451 16.375 20.2785 17.231 18.7548 18.7548C17.231 20.2785 16.375 22.3451 16.375 24.5C16.375 26.6549 17.231 28.7215 18.7548 30.2452C20.2785 31.769 22.3451 32.625 24.5 32.625C26.6549 32.625 28.7215 31.769 30.2452 30.2452C31.769 28.7215 32.625 26.6549 32.625 24.5C32.625 22.3451 31.769 20.2785 30.2452 18.7548C28.7215 17.231 26.6549 16.375 24.5 16.375Z" fill="black"/>
        </symbol>


    </defs>
</svg>